<svg width="25" height="22" viewBox="0 0 25 22" fill="none" xmlns="http://www.w3.org/2000/svg">
<path d="M16.6667 18.875V17.125C16.6667 16.1967 16.2277 15.3065 15.4463 14.6501C14.6649 13.9937 13.6051 13.625 12.5 13.625H5.20833C4.10326 13.625 3.04346 13.9937 2.26206 14.6501C1.48065 15.3065 1.04167 16.1967 1.04167 17.125V18.875" stroke="white" stroke-width="2" stroke-linecap="round" stroke-linejoin="round"/>
<path d="M8.85417 10.125C11.1554 10.125 13.0208 8.558 13.0208 6.625C13.0208 4.692 11.1554 3.125 8.85417 3.125C6.55298 3.125 4.6875 4.692 4.6875 6.625C4.6875 8.558 6.55298 10.125 8.85417 10.125Z" stroke="white" stroke-width="2" stroke-linecap="round" stroke-linejoin="round"/>
<path d="M17.7083 10.125L19.7917 11.875L23.9583 8.375" stroke="white" stroke-width="2" stroke-linecap="round" stroke-linejoin="round"/>
</svg>
